<?xml version="1.0" encoding="UTF-8"?>
<svg width="1024" height="1024" version="1.1" viewBox="0 0 1024 1024" xmlns="http://www.w3.org/2000/svg">
 <g>
  <path d="M512 0C229.23 0 0 229.23 0 512s229.23 512 512 512 512-229.23 512-512S794.77 0 512 0zm0 960C264.58 960 64 759.42 64 512S264.58 64 512 64s448 200.58 448 448-200.58 448-448 448z" fill="none"/>
  <g transform="matrix(1.2 0 0 1.2 -102.4 -102.4)">
   <path d="m400 300l-150 400h80l30-85h180l30 85h80l-150-400zm40 235l60-170 60 170z" fill="#1e40af"/>
   <path d="m600 300v400h80v-150h120c66 0 120-54 120-120v-10c0-66-54-120-120-120zm80 70h120c27.5 0 50 22.5 50 50v10c0 27.5-22.5 50-50 50h-120z" fill="#1e40af"/>
   <path d="m250 450c-27.5 0-50-22.5-50-50v-10c0-27.5 22.5-50 50-50h120v-70h-120c-66 0-120 54-120 120v10c0 66 54 120 120 120h120v-70z" fill="#1e40af"/>
  </g>
  <path d="m300 600l-50 50 100 100-100 100 50 50 100-100 100 100 50-50-100-100 100-100-50-50-100 100z" fill="#22c55e"/>
 </g>
</svg>