<svg version="1.1" id="Layer_1" xmlns="http://www.w3.org/2000/svg" xmlns:xlink="http://www.w3.org/1999/xlink" x="0px" y="0px"
	 width="100%" viewBox="0 0 1024 1024" enable-background="new 0 0 1024 1024" xml:space="preserve">
<path fill="#000000" opacity="1.000000" stroke="none" 
	d="
M540.532593,363.548035 
	C555.881714,393.332977 570.978760,422.830627 586.317566,452.202057 
	C588.402893,456.195068 587.815613,458.434265 584.689209,461.564331 
	C568.837402,477.434570 555.617188,495.362335 544.365234,514.755920 
	C543.481018,516.280029 542.927063,518.159180 540.228943,519.056702 
	C531.567322,502.471313 522.870789,485.819122 514.174255,469.166901 
	C513.549377,469.161377 512.924500,469.155884 512.299622,469.150360 
	C502.773834,488.015656 493.248077,506.880920 483.802856,525.586670 
	C480.830231,525.195312 480.413361,523.156921 479.606812,521.651672 
	C474.494934,512.111877 469.472473,502.524139 464.423340,492.950684 
	C457.963226,480.701904 451.037659,468.744446 441.921539,458.230530 
	C439.904510,455.904236 439.578491,453.920929 441.014282,451.077240 
	C458.428528,416.586273 475.711578,382.029114 493.070526,347.510162 
	C497.015137,339.666138 503.466949,335.485443 512.268616,335.419403 
	C521.406494,335.350800 528.243469,339.326355 532.392151,347.652039 
	C534.991882,352.869171 537.698242,358.033173 540.532593,363.548035 
z"/>
<path fill="#000000" opacity="1.000000" stroke="none" 
	d="
M607.770325,459.686462 
	C622.836853,450.291443 639.004089,445.517944 656.289795,444.975677 
	C665.262451,444.694214 674.226074,445.738159 682.815063,448.811676 
	C686.256104,450.043060 689.743896,451.150452 693.236328,452.230133 
	C699.440796,454.148224 702.309814,459.357483 700.038757,465.452209 
	C699.133240,467.882263 699.283508,469.887756 700.196716,472.151428 
	C709.105469,494.235107 717.905945,516.362732 726.884521,538.417847 
	C729.600708,545.089905 729.810547,545.004456 736.938782,545.942932 
	C738.317261,550.985657 736.283264,555.332886 733.598999,559.330627 
	C726.985596,569.179871 717.139954,574.148193 705.933655,576.671265 
	C690.276917,580.196472 675.108826,578.816162 660.894409,571.006042 
	C652.722778,566.516174 646.667603,560.135010 644.451660,550.658508 
	C643.640442,547.189758 643.877380,544.932922 648.221436,545.455750 
	C650.583679,545.740112 651.971924,544.720825 652.783630,542.531311 
	C661.590393,518.777771 674.138367,496.605652 682.343811,472.594208 
	C684.712097,465.664032 682.793274,462.522858 675.694519,461.088837 
	C644.191528,454.724792 617.934204,464.846436 595.530579,486.674957 
	C579.803101,501.998688 567.274780,519.867493 555.473755,538.286499 
	C547.482361,550.759399 539.977722,563.660278 528.477234,573.421082 
	C515.300659,584.604309 500.891541,584.222473 488.002472,572.590088 
	C477.651978,563.248840 470.962646,551.322876 464.542908,539.244751 
	C456.803558,524.683960 449.707001,509.768890 440.653656,495.939453 
	C431.268646,481.603455 419.836731,469.536041 403.580322,462.859955 
	C386.931091,456.022461 370.568481,458.995605 354.311737,464.296387 
	C350.339447,465.591644 345.819275,466.221680 344.266815,471.401978 
	C343.694641,473.311096 343.488220,474.840118 344.235138,476.616058 
	C354.048157,499.947174 362.375977,523.878113 372.676758,547.015198 
	C373.858948,549.670654 375.426819,550.954102 378.365875,550.717102 
	C381.904419,550.431641 382.577393,552.348328 381.914734,555.453918 
	C379.270050,567.848267 370.717010,575.031433 359.695648,579.183777 
	C337.856750,587.411621 316.905121,586.155029 297.994873,571.120422 
	C293.303436,567.390503 290.323395,562.366272 288.980804,556.486389 
	C288.214630,553.130920 288.510040,550.351929 293.091370,550.697449 
	C295.478119,550.877441 296.754272,549.548279 297.520447,547.458679 
	C305.955933,524.452881 318.240417,503.075714 326.135071,479.835480 
	C327.283630,476.454285 327.860626,473.373566 326.766541,469.696350 
	C324.858826,463.284851 328.999542,457.998901 335.718811,457.762939 
	C338.320038,457.671570 340.586395,457.098755 342.792694,455.780487 
	C379.515320,433.839081 419.936096,445.571564 444.380310,479.309387 
	C456.363800,495.848938 465.165344,514.200623 474.646393,532.170837 
	C479.940613,542.205505 485.482635,552.090393 493.836304,560.033630 
	C504.721527,570.384094 514.470032,570.384827 525.241455,559.874146 
	C533.078979,552.226379 538.757507,542.960510 544.130249,533.558655 
	C555.518005,513.631226 569.147949,495.393494 584.837097,478.688385 
	C591.587341,471.501007 599.112488,465.176147 607.770325,459.686462 
M700.145386,491.266724 
	C698.737000,487.751343 697.328613,484.235992 695.491577,479.650665 
	C694.982178,481.547821 694.744934,482.023499 694.742126,482.500519 
	C694.625183,502.310486 694.527710,522.120605 694.433411,541.930664 
	C694.425476,543.603943 695.060303,545.082275 696.824219,545.221802 
	C705.199402,545.884399 713.574036,545.954529 722.684692,545.127563 
	C715.065308,526.902039 707.762756,509.434387 700.145386,491.266724 
M673.407043,512.835999 
	C669.004456,523.173523 664.601807,533.511047 660.342896,543.511169 
	C662.282166,545.756653 664.184814,545.579651 665.980530,545.592529 
	C671.630310,545.632812 677.284790,545.469238 682.929077,545.649231 
	C686.647034,545.767700 687.867432,544.210754 687.818054,540.611572 
	C687.667664,529.645691 687.750977,518.676575 687.747253,507.708679 
	C687.744080,498.509888 687.746582,489.311096 687.746582,480.112305 
	C687.504395,480.085724 687.262268,480.059113 687.020081,480.032501 
	C682.579895,490.733276 678.139709,501.434052 673.407043,512.835999 
M332.533081,539.787292 
	C331.157074,522.203796 334.193237,504.501923 331.537476,485.809875 
	C322.219971,507.862091 313.381439,528.780640 304.110779,550.721985 
	C310.983032,550.721985 316.758331,550.718018 322.533661,550.722900 
	C332.612946,550.731506 332.612946,550.733765 332.533081,539.787292 
M346.647705,550.710632 
	C353.072968,550.710632 359.498230,550.710632 367.101288,550.710632 
	C357.754242,528.335754 348.870789,507.070587 339.987335,485.805389 
	C339.230377,505.494568 339.410614,524.973755 339.110596,544.445618 
	C339.030090,549.672791 340.796082,551.459106 346.647705,550.710632 
z"/>
<path fill="#000000" opacity="1.000000" stroke="none" 
	d="
M565.550049,540.581543 
	C577.104004,523.705444 588.807251,507.424500 603.482178,493.881531 
	C605.944397,495.160095 606.491150,496.798889 607.239136,498.253754 
	C634.506042,551.293152 661.751709,604.343445 689.028870,657.377563 
	C691.614746,662.405212 693.111816,667.566895 691.846069,673.245972 
	C689.488831,683.822632 681.954163,690.387268 670.476318,690.839050 
	C658.493591,691.310852 646.475708,691.364136 634.487183,691.055969 
	C625.629150,690.828247 619.086975,686.240173 614.991882,678.316895 
	C595.334473,640.283752 575.724609,602.225708 555.948608,564.254333 
	C554.094910,560.695129 553.976318,558.040527 556.422302,554.744751 
	C559.690369,550.341248 562.403748,545.526062 565.550049,540.581543 
z"/>
<path fill="#000000" opacity="1.000000" stroke="none" 
	d="
M439.362122,510.689545 
	C449.879272,528.124390 457.627472,546.663086 468.375427,563.551208 
	C469.818298,565.818420 468.819305,567.635254 467.830200,569.599976 
	C454.948914,595.185974 442.087372,620.781921 429.213837,646.371765 
	C424.050507,656.635437 418.759277,666.836670 413.731110,677.165955 
	C409.429657,686.002380 402.440521,690.541687 392.747559,690.757263 
	C381.426575,691.009155 370.095673,691.205383 358.775909,691.016663 
	C346.229004,690.807495 338.015137,683.544983 336.030457,671.408203 
	C335.151703,666.034424 337.158051,661.275452 339.497101,656.609924 
	C360.100281,615.513306 380.691650,574.410889 401.285004,533.309326 
	C407.701019,520.503845 414.107605,507.693604 420.531708,494.892151 
	C421.333801,493.293732 421.853943,491.472046 424.118591,490.166046 
	C430.293335,496.033356 434.660461,503.264771 439.362122,510.689545 
z"/>
<path fill="#000000" opacity="1.000000" stroke="none" 
	d="
M482.566895,613.760254 
	C485.454315,612.912598 485.389374,615.244202 485.910095,616.560974 
	C487.926971,621.660950 489.699280,626.856873 491.643524,631.986450 
	C493.147705,635.955078 494.034302,640.268250 498.357483,643.330078 
	C493.657074,644.938232 489.651947,644.244751 485.245361,643.932800 
	C486.480255,640.229187 487.746765,636.407043 483.502686,634.333374 
	C481.504883,633.357300 478.710205,633.199524 477.163116,635.547729 
	C475.442780,638.158813 474.105530,641.042297 479.292603,643.164917 
	C474.919495,644.801392 471.838531,644.421814 468.234222,643.676575 
	C475.845734,634.834961 477.176422,623.542969 482.566895,613.760254 
z"/>
<path fill="#000000" opacity="1.000000" stroke="none" 
	d="
M539.807129,643.568176 
	C530.834656,638.665527 527.891418,629.229797 532.428589,620.926514 
	C536.179565,614.062012 548.415344,610.179443 555.347534,613.654175 
	C557.529846,614.748047 557.837402,616.335449 556.843872,621.478149 
	C555.155579,621.431274 554.955261,619.836792 554.175964,618.882629 
	C549.850647,613.586975 543.022888,614.253845 539.977051,620.422668 
	C537.913269,624.602539 537.774109,629.033264 538.961975,633.545410 
	C540.103882,637.883240 542.419617,641.163574 546.959961,642.222046 
	C551.088684,643.184570 553.375427,640.385132 555.522034,637.517578 
	C556.027588,636.842224 556.576355,636.221619 557.561646,636.442871 
	C558.124756,642.075500 557.006592,643.510620 551.914673,644.690247 
	C547.837341,645.634766 544.000305,645.075073 539.807129,643.568176 
z"/>
<path fill="#000000" opacity="1.000000" stroke="none" 
	d="
M508.642487,627.077637 
	C508.530548,622.382568 509.617584,617.891235 505.103119,614.328735 
	C509.820557,613.096375 513.847900,613.880920 517.565186,613.726929 
	C514.136780,623.797241 514.223083,633.431030 517.374512,644.018250 
	C514.112610,644.684631 509.940979,644.312073 504.577179,643.924011 
	C510.755890,638.881470 507.973999,632.905151 508.642487,627.077637 
z"/>
</svg>